<?xml version="1.0" encoding="utf-8"?>
<!-- Generator: Adobe Illustrator 18.0.0, SVG Export Plug-In . SVG Version: 6.00 Build 0)  -->
<!DOCTYPE svg PUBLIC "-//W3C//DTD SVG 1.1//EN" "http://www.w3.org/Graphics/SVG/1.1/DTD/svg11.dtd">
<svg version="1.1" xmlns="http://www.w3.org/2000/svg" xmlns:xlink="http://www.w3.org/1999/xlink" x="0px" y="0px" width="728px"
	 height="1028px" viewBox="0 0 728 1028" style="enable-background:new 0 0 728 1028;" xml:space="preserve">
<style type="text/css">
	.st0{fill:none;stroke:#000;stroke-width:3;}
	.st1{fill:none;stroke:#00f;stroke-width:3;}
	.st2{fill:#00f;}
	.st3{fill:none;stroke:#38B000;stroke-width:3;}
	.st4{fill:#38B000;}
	.st5{fill:#CBCBCB;stroke:#000;stroke-width:4;enable-background:new    ;}
	.st6{fill:#fff;stroke:#000;stroke-width:4;}
	.st7{font-family:Liberation Sans,Arial;}
	.st8{font-size:48px;}
</style>
<g id="arrows">
	<g>
		<g>
			<line class="st0" x1="364.4" y1="63.7" x2="117.1" y2="310.9"/>
			<g>
				<polygon points="105.2,322.9 115.1,299.1 118,310 128.9,312.9 				"/>
			</g>
		</g>
	</g>
	<g>
		<g>
			<line class="st1" x1="317.1" y1="127.8" x2="113.6" y2="331.3"/>
			<g>
				<polygon class="st2" points="329.1,115.8 305.3,125.8 316.2,128.7 319.1,139.6 				"/>
			</g>
		</g>
	</g>
	<g>
		<g>
			<line class="st0" x1="364" y1="63.3" x2="609.6" y2="309"/>
			<g>
				<polygon points="621.6,321 597.8,311 608.8,308.1 611.6,297.2 				"/>
			</g>
		</g>
	</g>
	<g>
		<g>
			<line class="st1" x1="409.4" y1="127.8" x2="612.1" y2="330.5"/>
			<g>
				<polygon class="st2" points="397.4,115.8 407.4,139.6 410.3,128.7 421.2,125.8 				"/>
			</g>
		</g>
	</g>
	<g>
		<g>
			<line class="st0" x1="662.4" y1="424.9" x2="662.4" y2="586"/>
			<g>
				<polygon points="662.4,602.9 652.7,579 662.4,584.7 672.2,579 				"/>
			</g>
		</g>
	</g>
	<g>
		<g>
			<line class="st0" x1="662.4" y1="722.9" x2="662.4" y2="884.6"/>
			<g>
				<polygon points="662.4,901.6 652.7,877.7 662.4,883.4 672.2,877.7 				"/>
			</g>
		</g>
	</g>
	<g>
		<g>
			<line class="st1" x1="350.2" y1="140.3" x2="350.2" y2="304.9"/>
			<g>
				<polygon class="st2" points="350.2,123.3 340.4,147.2 350.2,141.5 359.9,147.2 				"/>
			</g>
		</g>
	</g>
	<g>
		<g>
			<line class="st0" x1="364" y1="123.3" x2="364" y2="286.2"/>
			<g>
				<polygon points="364,303.2 354.2,279.3 364,285 373.8,279.3 				"/>
			</g>
		</g>
	</g>
	<g>
		<g>
			<line class="st0" x1="364" y1="424.9" x2="364" y2="586"/>
			<g>
				<polygon points="364,602.9 354.2,579 364,584.7 373.8,579 				"/>
			</g>
		</g>
	</g>
	<g>
		<g>
			<line class="st0" x1="364" y1="722.9" x2="364" y2="884.6"/>
			<g>
				<polygon points="364,901.6 354.2,877.7 364,883.4 373.8,877.7 				"/>
			</g>
		</g>
	</g>
	<g>
		<g>
			<line class="st0" x1="62.4" y1="424.9" x2="62.4" y2="586"/>
			<g>
				<polygon points="62.4,602.9 52.6,579 62.4,584.7 72.1,579 				"/>
			</g>
		</g>
	</g>
	<g>
		<g>
			<line class="st1" x1="364" y1="961.6" x2="608.2" y2="717.4"/>
			<g>
				<polygon class="st2" points="620.1,705.4 610.2,729.2 607.3,718.3 596.4,715.4 				"/>
			</g>
		</g>
	</g>
	<g>
		<g>
			<line class="st1" x1="415.4" y1="634.8" x2="619.7" y2="430.4"/>
			<g>
				<polygon class="st2" points="631.7,418.4 621.7,442.2 618.8,431.3 607.9,428.4 				"/>
			</g>
		</g>
	</g>
	<g>
		<g>
			<line class="st3" x1="402.2" y1="616.6" x2="602.7" y2="416.1"/>
			<g>
				<polygon class="st4" points="614.7,404.1 604.7,427.9 601.8,417 590.9,414.1 				"/>
			</g>
		</g>
	</g>
	<g>
		<g>
			<line class="st3" x1="88.8" y1="440.2" x2="318.6" y2="922.4"/>
			<g>
				<polygon class="st4" points="81.5,424.9 83,450.7 89.3,441.4 100.6,442.3 				"/>
			</g>
		</g>
	</g>
	<g>
		<g>
			<line class="st1" x1="622.1" y1="621.3" x2="139.4" y2="373.6"/>
			<g>
				<polygon class="st2" points="124.3,365.9 150,368.1 140.5,374.2 141.1,385.4 				"/>
			</g>
		</g>
	</g>
	<g>
		<g>
			<line class="st3" x1="662.4" y1="662.9" x2="135.2" y2="395.9"/>
			<g>
				<polygon class="st4" points="120.1,388.3 145.8,390.4 136.4,396.5 137,407.8 				"/>
			</g>
		</g>
	</g>
	<g>
		<g>
			<line class="st1" x1="60.8" y1="664.5" x2="305" y2="417.8"/>
			<g>
				<polygon class="st2" points="317,405.7 307.1,429.6 304.1,418.7 293.2,415.9 				"/>
			</g>
		</g>
	</g>
	<g>
		<g>
			<path class="st3" d="M102.2,433c188.7,419.9,222.9,401.8,505.5,504"/>
			<g>
				<polygon class="st4" points="95.3,417.5 96.3,443.3 102.8,434.1 114.1,435.2 				"/>
			</g>
		</g>
	</g>
	<g>
		<g>
			<path class="st1" d="M114.7,423.4c188.7,419.9,222.9,401.8,505.5,504"/>
			<g>
				<polygon class="st2" points="107.8,407.9 108.8,433.7 115.3,424.5 126.6,425.6 				"/>
			</g>
		</g>
	</g>
</g>
<g id="circles">
	<circle class="st5" cx="364" cy="63.3" r="60"/>
	<circle class="st6" cx="62.4" cy="364.9" r="60"/>
	<circle class="st5" cx="364" cy="364.9" r="60"/>
	<circle class="st6" cx="662.4" cy="364.9" r="60"/>
	<circle class="st6" cx="62.4" cy="662.9" r="60"/>
	<circle class="st6" cx="364" cy="662.9" r="60"/>
	<circle class="st5" cx="662.4" cy="662.9" r="60"/>
	<circle class="st6" cx="364" cy="961.6" r="60"/>
	<circle class="st6" cx="662.4" cy="961.6" r="60"/>
</g>
<g id="text">
	<text transform="matrix(1 0 0 1 325.3049 974.5461)" class="st7 st8">bca</text>
	<text transform="matrix(1 0 0 1 338.6526 675.8972)" class="st7 st8">bc</text>
	<text transform="matrix(1 0 0 1 35.6914 675.8972)" class="st7 st8">ab</text>
	<text transform="matrix(1 0 0 1 49.039 377.9223)" class="st7 st8">a</text>
	<text transform="matrix(1 0 0 1 677.4174 461.7058)" class="st7 st8">a</text>
	<text transform="matrix(1 0 0 1 677.4174 764.4086)" class="st7 st8">a</text>
	<text transform="matrix(1 0 0 1 373.1996 764.4086)" class="st7 st8">a</text>
	<text transform="matrix(1 0 0 1 250.3904 136.0303)" class="st7 st8">a</text>
	<text transform="matrix(1 0 0 1 650.4325 377.9223)" class="st7 st8">c</text>
	<text transform="matrix(1 0 0 1 374.5467 461.7058)" class="st7 st8">c</text>
	<text transform="matrix(1 0 0 1 445.0271 136.0304)" class="st7 st8">c</text>
	<text transform="matrix(1 0 0 1 350.6523 377.9221)" class="st7 st8">b</text>
	<text transform="matrix(1 0 0 1 29.0307 461.7059)" class="st7 st8">b</text>
	<text transform="matrix(1 0 0 1 373.1991 181.9762)" class="st7 st8">b</text>
	<text transform="matrix(1 0 0 1 623.7371 974.546)" class="st7 st8">caa</text>
	<text transform="matrix(1 0 0 1 637.0845 675.8972)" class="st7 st8">ca</text>
</g>
</svg>
