<svg version="1.1" xmlns="http://www.w3.org/2000/svg" xmlns:xlink="http://www.w3.org/1999/xlink" width="2488" height="1463"><defs><clipPath id="dyscTaRNGoGi"><path fill="none" stroke="none" d=" M 0 0 L 2488 0 L 2488 1463 L 0 1463 L 0 0 Z"/></clipPath></defs><g transform="scale(1,1)" clip-path="url(#dyscTaRNGoGi)"><g><rect fill="rgb(255,255,255)" stroke="none" x="0" y="0" width="2488" height="1463" fill-opacity="1"/><path fill="rgb(255,0,0)" stroke="none" paint-order="stroke fill markers" d=" M 1826.0655205701282 263.18422047327 C 1780.663999224127 65.6602196941817 1363.6200648084723 -7.0655364559482905 894.5718217112226 100.74669768921382 C 425.52357861397263 208.55893183437595 82.09005438514737 456.08285648867286 127.4915757311486 653.6068572677611 C 172.89309707714983 851.1308580468495 589.9370314928045 923.8566141969794 1058.9852745900544 816.0443800518174 C 1528.033517687304 708.2321459066552 1871.4670419161296 460.7082212523583 1826.0655205701282 263.18422047327 Z" fill-opacity="0.24705882352941178"/><path fill="none" stroke="rgb(255,0,0)" paint-order="fill stroke markers" d=" M 1826.0655205701282 263.18422047327 C 1780.663999224127 65.6602196941817 1363.6200648084723 -7.0655364559482905 894.5718217112226 100.74669768921382 C 425.52357861397263 208.55893183437595 82.09005438514737 456.08285648867286 127.4915757311486 653.6068572677611 C 172.89309707714983 851.1308580468495 589.9370314928045 923.8566141969794 1058.9852745900544 816.0443800518174 C 1528.033517687304 708.2321459066552 1871.4670419161296 460.7082212523583 1826.0655205701282 263.18422047327 Z" stroke-opacity="0.6980392156862745" stroke-linejoin="round" stroke-miterlimit="10" stroke-width="5" stroke-dasharray="9,4"/><path fill="rgb(0,0,255)" stroke="none" paint-order="stroke fill markers" d=" M 2316.5066796609535 832.7809779857454 C 2269.6817246824476 657.8179150513884 1880.2597438883276 610.0435095075994 1446.7083409915779 726.0738566050611 C 1013.1569380948282 842.1042037025228 699.6532093936246 1078.000971465713 746.4781643721305 1252.96403440007 C 793.3031193506365 1427.927097334427 1182.7251001447562 1475.7015028782157 1616.276503041506 1359.6711557807541 C 2049.8279059382558 1243.6408086832926 2363.3316346394595 1007.7440409201023 2316.5066796609535 832.7809779857454 Z" fill-opacity="0.22745098039215686"/><path fill="none" stroke="rgb(0,0,255)" paint-order="fill stroke markers" d=" M 2316.5066796609535 832.7809779857454 C 2269.6817246824476 657.8179150513884 1880.2597438883276 610.0435095075994 1446.7083409915779 726.0738566050611 C 1013.1569380948282 842.1042037025228 699.6532093936246 1078.000971465713 746.4781643721305 1252.96403440007 C 793.3031193506365 1427.927097334427 1182.7251001447562 1475.7015028782157 1616.276503041506 1359.6711557807541 C 2049.8279059382558 1243.6408086832926 2363.3316346394595 1007.7440409201023 2316.5066796609535 832.7809779857454 Z" stroke-opacity="0.6980392156862745" stroke-linejoin="round" stroke-miterlimit="10" stroke-width="5" stroke-dasharray="9,4"/><path fill="none" stroke="rgb(0,0,0)" paint-order="fill stroke markers" d=" M 865.1405059137232 1433.5810116865807 L 865.1405059137232 158.67660497459246" stroke-opacity="0.6980392156862745" stroke-linejoin="round" stroke-miterlimit="10" stroke-width="2.5" stroke-dasharray="10.5,8"/><path fill="none" stroke="rgb(0,0,0)" paint-order="fill stroke markers" d=" M 1630.083149940915 158.67660497459246 L 1630.083149940915 1433.5810116865807" stroke-opacity="0.6980392156862745" stroke-linejoin="round" stroke-miterlimit="10" stroke-width="2.5" stroke-dasharray="10.5,8"/><path fill="none" stroke="rgb(211,47,47)" paint-order="fill stroke markers" d=" M 355.17874322892874 796.1288083305866 L 839.6846617910076 311.6228897685069" stroke-opacity="0.6980392156862745" stroke-linecap="round" stroke-linejoin="round" stroke-miterlimit="10" stroke-width="6"/><path fill="rgb(211,47,47)" stroke="none" paint-order="stroke fill markers" fill-rule="evenodd" d=" M 865.1405059137232 286.1670456457912 L 846.0486228216865 317.98685079918585 L 833.3207007603286 305.258928737828 Z" fill-opacity="0.6980392156862745"/><path fill="none" stroke="rgb(211,47,47)" paint-order="fill stroke markers" d=" M 355.17874322892874 796.1288083305866 L 832.9411270377263 557.2476164261874" stroke-opacity="0.6980392156862745" stroke-linecap="round" stroke-linejoin="round" stroke-miterlimit="10" stroke-width="6"/><path fill="rgb(211,47,47)" stroke="none" paint-order="stroke fill markers" fill-rule="evenodd" d=" M 865.1405059137232 541.1479269881889 L 836.966049397226 565.2974611451866 L 828.9162046782267 549.1977717071882 Z" fill-opacity="0.6980392156862745"/><path fill="none" stroke="rgb(211,47,47)" paint-order="fill stroke markers" d=" M 355.17874322892874 796.1288083305866 L 829.1405059137232 796.1288083305866" stroke-opacity="0.6980392156862745" stroke-linecap="round" stroke-linejoin="round" stroke-miterlimit="10" stroke-width="6"/><path fill="rgb(211,47,47)" stroke="none" paint-order="stroke fill markers" fill-rule="evenodd" d=" M 865.1405059137232 796.1288083305866 L 829.1405059137232 805.1288083305866 L 829.1405059137232 787.1288083305866 Z" fill-opacity="0.6980392156862745"/><path fill="none" stroke="rgb(211,47,47)" paint-order="fill stroke markers" d=" M 865.1405059137232 796.1288083305866 L 1595.9305512110966 552.5321265647951" stroke-opacity="0.6980392156862745" stroke-linecap="round" stroke-linejoin="round" stroke-miterlimit="10" stroke-width="6"/><path fill="rgb(211,47,47)" stroke="none" paint-order="stroke fill markers" fill-rule="evenodd" d=" M 1630.083149940915 541.1479269881889 L 1598.7766011052481 561.0702762472498 L 1593.084501316945 543.9939768823405 Z" fill-opacity="0.6980392156862745"/><path fill="none" stroke="rgb(211,47,47)" paint-order="fill stroke markers" d=" M 865.1405059137232 541.1479269881889 L 1595.9305512110966 297.55124522239737" stroke-opacity="0.6980392156862745" stroke-linecap="round" stroke-linejoin="round" stroke-miterlimit="10" stroke-width="6"/><path fill="rgb(211,47,47)" stroke="none" paint-order="stroke fill markers" fill-rule="evenodd" d=" M 1630.083149940915 286.1670456457912 L 1598.7766011052481 306.089394904852 L 1593.084501316945 289.01309553994275 Z" fill-opacity="0.6980392156862745"/><path fill="none" stroke="rgb(211,47,47)" paint-order="fill stroke markers" d=" M 865.1405059137232 286.1670456457912 L 1594.083149940915 286.1670456457912" stroke-opacity="0.6980392156862745" stroke-linecap="round" stroke-linejoin="round" stroke-miterlimit="10" stroke-width="6"/><path fill="rgb(211,47,47)" stroke="none" paint-order="stroke fill markers" fill-rule="evenodd" d=" M 1630.083149940915 286.1670456457912 L 1594.083149940915 295.1670456457912 L 1594.083149940915 277.1670456457912 Z" fill-opacity="0.6980392156862745"/><path fill="none" stroke="rgb(46,125,50)" paint-order="fill stroke markers" d=" M 1630.083149940915 286.1670456457912 L 2114.589068502994 770.6729642078709" stroke-opacity="0.6980392156862745" stroke-linecap="round" stroke-linejoin="round" stroke-miterlimit="10" stroke-width="6"/><path fill="rgb(46,125,50)" stroke="none" paint-order="stroke fill markers" fill-rule="evenodd" d=" M 2140.0449126257095 796.1288083305866 L 2108.225107472315 777.0369252385498 L 2120.953029533673 764.309003177192 Z" fill-opacity="0.6980392156862745"/><path fill="none" stroke="rgb(46,125,50)" paint-order="fill stroke markers" d=" M 1630.083149940915 541.1479269881889 L 2107.8455337497126 780.029118892588" stroke-opacity="0.6980392156862745" stroke-linecap="round" stroke-linejoin="round" stroke-miterlimit="10" stroke-width="6"/><path fill="rgb(46,125,50)" stroke="none" paint-order="stroke fill markers" fill-rule="evenodd" d=" M 2140.0449126257095 796.1288083305866 L 2103.820611390213 788.0789636115873 L 2111.8704561092122 771.9792741735888 Z" fill-opacity="0.6980392156862745"/><path fill="none" stroke="rgb(46,125,50)" paint-order="fill stroke markers" d=" M 355.17874322892874 796.1288083305866 L 832.9411270377263 1035.010000234986" stroke-opacity="0.6980392156862745" stroke-linecap="round" stroke-linejoin="round" stroke-miterlimit="10" stroke-width="6"/><path fill="rgb(46,125,50)" stroke="none" paint-order="stroke fill markers" fill-rule="evenodd" d=" M 865.1405059137232 1051.1096896729844 L 828.9162046782267 1043.0598449539852 L 836.966049397226 1026.9601555159866 Z" fill-opacity="0.6980392156862745"/><path fill="none" stroke="rgb(46,125,50)" paint-order="fill stroke markers" d=" M 355.17874322892874 796.1288083305866 L 839.6846617910076 1280.6347268926663" stroke-opacity="0.6980392156862745" stroke-linecap="round" stroke-linejoin="round" stroke-miterlimit="10" stroke-width="6"/><path fill="rgb(46,125,50)" stroke="none" paint-order="stroke fill markers" fill-rule="evenodd" d=" M 865.1405059137232 1306.090571015382 L 833.3207007603286 1286.9986879233452 L 846.0486228216865 1274.2707658619875 Z" fill-opacity="0.6980392156862745"/><path fill="none" stroke="rgb(21,101,192)" paint-order="fill stroke markers" d=" M 865.1405059137232 1051.1096896729844 L 1595.9305512110966 807.5130079071928" stroke-opacity="0.6980392156862745" stroke-linecap="round" stroke-linejoin="round" stroke-miterlimit="10" stroke-width="6"/><path fill="rgb(21,101,192)" stroke="none" paint-order="stroke fill markers" fill-rule="evenodd" d=" M 1630.083149940915 796.1288083305866 L 1598.7766011052481 816.0511575896475 L 1593.084501316945 798.9748582247381 Z" fill-opacity="0.6980392156862745"/><path fill="none" stroke="rgb(21,101,192)" paint-order="fill stroke markers" d=" M 865.1405059137232 1051.1096896729844 L 1594.083149940915 1051.1096896729844" stroke-opacity="0.6980392156862745" stroke-linecap="round" stroke-linejoin="round" stroke-miterlimit="10" stroke-width="6"/><path fill="rgb(21,101,192)" stroke="none" paint-order="stroke fill markers" fill-rule="evenodd" d=" M 1630.083149940915 1051.1096896729844 L 1594.083149940915 1060.1096896729844 L 1594.083149940915 1042.1096896729844 Z" fill-opacity="0.6980392156862745"/><path fill="none" stroke="rgb(21,101,192)" paint-order="fill stroke markers" d=" M 865.1405059137232 1051.1096896729844 L 1595.9305512110966 1294.706371438776" stroke-opacity="0.6980392156862745" stroke-linecap="round" stroke-linejoin="round" stroke-miterlimit="10" stroke-width="6"/><path fill="rgb(21,101,192)" stroke="none" paint-order="stroke fill markers" fill-rule="evenodd" d=" M 1630.083149940915 1306.090571015382 L 1593.084501316945 1303.2445211212305 L 1598.7766011052481 1286.1682217563214 Z" fill-opacity="0.6980392156862745"/><path fill="none" stroke="rgb(21,101,192)" paint-order="fill stroke markers" d=" M 865.1405059137232 1306.090571015382 L 1594.083149940915 1306.090571015382" stroke-opacity="0.6980392156862745" stroke-linecap="round" stroke-linejoin="round" stroke-miterlimit="10" stroke-width="6"/><path fill="rgb(21,101,192)" stroke="none" paint-order="stroke fill markers" fill-rule="evenodd" d=" M 1630.083149940915 1306.090571015382 L 1594.083149940915 1315.090571015382 L 1594.083149940915 1297.090571015382 Z" fill-opacity="0.6980392156862745"/><path fill="none" stroke="rgb(21,101,192)" paint-order="fill stroke markers" d=" M 1630.083149940915 1306.090571015382 L 2114.589068502994 821.5846524533023" stroke-opacity="0.6980392156862745" stroke-linecap="round" stroke-linejoin="round" stroke-miterlimit="10" stroke-width="6"/><path fill="rgb(21,101,192)" stroke="none" paint-order="stroke fill markers" fill-rule="evenodd" d=" M 2140.0449126257095 796.1288083305866 L 2120.953029533673 827.9486134839811 L 2108.225107472315 815.2206914226234 Z" fill-opacity="0.6980392156862745"/><path fill="none" stroke="rgb(21,101,192)" paint-order="fill stroke markers" d=" M 1630.083149940915 1051.1096896729844 L 2107.8455337497126 812.2284977685852" stroke-opacity="0.6980392156862745" stroke-linecap="round" stroke-linejoin="round" stroke-miterlimit="10" stroke-width="6"/><path fill="rgb(21,101,192)" stroke="none" paint-order="stroke fill markers" fill-rule="evenodd" d=" M 2140.0449126257095 796.1288083305866 L 2111.8704561092122 820.2783424875844 L 2103.820611390213 804.1786530495859 Z" fill-opacity="0.6980392156862745"/><path fill="none" stroke="rgb(21,101,192)" paint-order="fill stroke markers" d=" M 1630.083149940915 796.1288083305866 L 2104.0449126257095 796.1288083305866" stroke-opacity="0.6980392156862745" stroke-linecap="round" stroke-linejoin="round" stroke-miterlimit="10" stroke-width="6"/><path fill="rgb(21,101,192)" stroke="none" paint-order="stroke fill markers" fill-rule="evenodd" d=" M 2140.0449126257095 796.1288083305866 L 2104.0449126257095 805.1288083305866 L 2104.0449126257095 787.1288083305866 Z" fill-opacity="0.6980392156862745"/><path fill="rgb(21,101,192)" stroke="none" paint-order="stroke fill markers" d=" M 874.1405059137232 1306.090571015382 C 874.1405059137232 1311.061133763859 870.1110686622004 1315.090571015382 865.1405059137232 1315.090571015382 C 860.1699431652461 1315.090571015382 856.1405059137232 1311.061133763859 856.1405059137232 1306.090571015382 C 856.1405059137232 1301.120008266905 860.1699431652461 1297.090571015382 865.1405059137232 1297.090571015382 C 870.1110686622004 1297.090571015382 874.1405059137232 1301.120008266905 874.1405059137232 1306.090571015382 Z" fill-opacity="1"/><path fill="none" stroke="rgb(0,0,0)" paint-order="fill stroke markers" d=" M 874.1405059137232 1306.090571015382 C 874.1405059137232 1311.061133763859 870.1110686622004 1315.090571015382 865.1405059137232 1315.090571015382 C 860.1699431652461 1315.090571015382 856.1405059137232 1311.061133763859 856.1405059137232 1306.090571015382 C 856.1405059137232 1301.120008266905 860.1699431652461 1297.090571015382 865.1405059137232 1297.090571015382 C 870.1110686622004 1297.090571015382 874.1405059137232 1301.120008266905 874.1405059137232 1306.090571015382 Z" stroke-opacity="1" stroke-linecap="round" stroke-linejoin="round" stroke-miterlimit="10"/><path fill="rgb(21,101,192)" stroke="none" paint-order="stroke fill markers" d=" M 874.1405059137232 1051.1096896729844 C 874.1405059137232 1056.0802524214614 870.1110686622004 1060.1096896729844 865.1405059137232 1060.1096896729844 C 860.1699431652461 1060.1096896729844 856.1405059137232 1056.0802524214614 856.1405059137232 1051.1096896729844 C 856.1405059137232 1046.1391269245073 860.1699431652461 1042.1096896729844 865.1405059137232 1042.1096896729844 C 870.1110686622004 1042.1096896729844 874.1405059137232 1046.1391269245073 874.1405059137232 1051.1096896729844 Z" fill-opacity="1"/><path fill="none" stroke="rgb(0,0,0)" paint-order="fill stroke markers" d=" M 874.1405059137232 1051.1096896729844 C 874.1405059137232 1056.0802524214614 870.1110686622004 1060.1096896729844 865.1405059137232 1060.1096896729844 C 860.1699431652461 1060.1096896729844 856.1405059137232 1056.0802524214614 856.1405059137232 1051.1096896729844 C 856.1405059137232 1046.1391269245073 860.1699431652461 1042.1096896729844 865.1405059137232 1042.1096896729844 C 870.1110686622004 1042.1096896729844 874.1405059137232 1046.1391269245073 874.1405059137232 1051.1096896729844 Z" stroke-opacity="1" stroke-linecap="round" stroke-linejoin="round" stroke-miterlimit="10"/><path fill="rgb(211,47,47)" stroke="none" paint-order="stroke fill markers" d=" M 874.1405059137232 796.1288083305866 C 874.1405059137232 801.0993710790638 870.1110686622004 805.1288083305866 865.1405059137232 805.1288083305866 C 860.1699431652461 805.1288083305866 856.1405059137232 801.0993710790638 856.1405059137232 796.1288083305866 C 856.1405059137232 791.1582455821094 860.1699431652461 787.1288083305866 865.1405059137232 787.1288083305866 C 870.1110686622004 787.1288083305866 874.1405059137232 791.1582455821094 874.1405059137232 796.1288083305866 Z" fill-opacity="1"/><path fill="none" stroke="rgb(0,0,0)" paint-order="fill stroke markers" d=" M 874.1405059137232 796.1288083305866 C 874.1405059137232 801.0993710790638 870.1110686622004 805.1288083305866 865.1405059137232 805.1288083305866 C 860.1699431652461 805.1288083305866 856.1405059137232 801.0993710790638 856.1405059137232 796.1288083305866 C 856.1405059137232 791.1582455821094 860.1699431652461 787.1288083305866 865.1405059137232 787.1288083305866 C 870.1110686622004 787.1288083305866 874.1405059137232 791.1582455821094 874.1405059137232 796.1288083305866 Z" stroke-opacity="1" stroke-linecap="round" stroke-linejoin="round" stroke-miterlimit="10"/><path fill="rgb(211,47,47)" stroke="none" paint-order="stroke fill markers" d=" M 874.1405059137232 541.1479269881889 C 874.1405059137232 546.1184897366661 870.1110686622004 550.1479269881889 865.1405059137232 550.1479269881889 C 860.1699431652461 550.1479269881889 856.1405059137232 546.1184897366661 856.1405059137232 541.1479269881889 C 856.1405059137232 536.1773642397118 860.1699431652461 532.1479269881889 865.1405059137232 532.1479269881889 C 870.1110686622004 532.1479269881889 874.1405059137232 536.1773642397118 874.1405059137232 541.1479269881889 Z" fill-opacity="1"/><path fill="none" stroke="rgb(0,0,0)" paint-order="fill stroke markers" d=" M 874.1405059137232 541.1479269881889 C 874.1405059137232 546.1184897366661 870.1110686622004 550.1479269881889 865.1405059137232 550.1479269881889 C 860.1699431652461 550.1479269881889 856.1405059137232 546.1184897366661 856.1405059137232 541.1479269881889 C 856.1405059137232 536.1773642397118 860.1699431652461 532.1479269881889 865.1405059137232 532.1479269881889 C 870.1110686622004 532.1479269881889 874.1405059137232 536.1773642397118 874.1405059137232 541.1479269881889 Z" stroke-opacity="1" stroke-linecap="round" stroke-linejoin="round" stroke-miterlimit="10"/><path fill="rgb(211,47,47)" stroke="none" paint-order="stroke fill markers" d=" M 874.1405059137232 286.1670456457912 C 874.1405059137232 291.13760839426834 870.1110686622004 295.1670456457912 865.1405059137232 295.1670456457912 C 860.1699431652461 295.1670456457912 856.1405059137232 291.13760839426834 856.1405059137232 286.1670456457912 C 856.1405059137232 281.196482897314 860.1699431652461 277.1670456457912 865.1405059137232 277.1670456457912 C 870.1110686622004 277.1670456457912 874.1405059137232 281.196482897314 874.1405059137232 286.1670456457912 Z" fill-opacity="1"/><path fill="none" stroke="rgb(0,0,0)" paint-order="fill stroke markers" d=" M 874.1405059137232 286.1670456457912 C 874.1405059137232 291.13760839426834 870.1110686622004 295.1670456457912 865.1405059137232 295.1670456457912 C 860.1699431652461 295.1670456457912 856.1405059137232 291.13760839426834 856.1405059137232 286.1670456457912 C 856.1405059137232 281.196482897314 860.1699431652461 277.1670456457912 865.1405059137232 277.1670456457912 C 870.1110686622004 277.1670456457912 874.1405059137232 281.196482897314 874.1405059137232 286.1670456457912 Z" stroke-opacity="1" stroke-linecap="round" stroke-linejoin="round" stroke-miterlimit="10"/><path fill="rgb(21,101,192)" stroke="none" paint-order="stroke fill markers" d=" M 1639.083149940915 1306.090571015382 C 1639.083149940915 1311.061133763859 1635.0537126893921 1315.090571015382 1630.083149940915 1315.090571015382 C 1625.112587192438 1315.090571015382 1621.083149940915 1311.061133763859 1621.083149940915 1306.090571015382 C 1621.083149940915 1301.120008266905 1625.112587192438 1297.090571015382 1630.083149940915 1297.090571015382 C 1635.0537126893921 1297.090571015382 1639.083149940915 1301.120008266905 1639.083149940915 1306.090571015382 Z" fill-opacity="1"/><path fill="none" stroke="rgb(0,0,0)" paint-order="fill stroke markers" d=" M 1639.083149940915 1306.090571015382 C 1639.083149940915 1311.061133763859 1635.0537126893921 1315.090571015382 1630.083149940915 1315.090571015382 C 1625.112587192438 1315.090571015382 1621.083149940915 1311.061133763859 1621.083149940915 1306.090571015382 C 1621.083149940915 1301.120008266905 1625.112587192438 1297.090571015382 1630.083149940915 1297.090571015382 C 1635.0537126893921 1297.090571015382 1639.083149940915 1301.120008266905 1639.083149940915 1306.090571015382 Z" stroke-opacity="1" stroke-linecap="round" stroke-linejoin="round" stroke-miterlimit="10"/><path fill="rgb(21,101,192)" stroke="none" paint-order="stroke fill markers" d=" M 1639.083149940915 1051.1096896729844 C 1639.083149940915 1056.0802524214614 1635.0537126893921 1060.1096896729844 1630.083149940915 1060.1096896729844 C 1625.112587192438 1060.1096896729844 1621.083149940915 1056.0802524214614 1621.083149940915 1051.1096896729844 C 1621.083149940915 1046.1391269245073 1625.112587192438 1042.1096896729844 1630.083149940915 1042.1096896729844 C 1635.0537126893921 1042.1096896729844 1639.083149940915 1046.1391269245073 1639.083149940915 1051.1096896729844 Z" fill-opacity="1"/><path fill="none" stroke="rgb(0,0,0)" paint-order="fill stroke markers" d=" M 1639.083149940915 1051.1096896729844 C 1639.083149940915 1056.0802524214614 1635.0537126893921 1060.1096896729844 1630.083149940915 1060.1096896729844 C 1625.112587192438 1060.1096896729844 1621.083149940915 1056.0802524214614 1621.083149940915 1051.1096896729844 C 1621.083149940915 1046.1391269245073 1625.112587192438 1042.1096896729844 1630.083149940915 1042.1096896729844 C 1635.0537126893921 1042.1096896729844 1639.083149940915 1046.1391269245073 1639.083149940915 1051.1096896729844 Z" stroke-opacity="1" stroke-linecap="round" stroke-linejoin="round" stroke-miterlimit="10"/><path fill="rgb(21,101,192)" stroke="none" paint-order="stroke fill markers" d=" M 1639.083149940915 796.1288083305866 C 1639.083149940915 801.0993710790638 1635.0537126893921 805.1288083305866 1630.083149940915 805.1288083305866 C 1625.112587192438 805.1288083305866 1621.083149940915 801.0993710790638 1621.083149940915 796.1288083305866 C 1621.083149940915 791.1582455821094 1625.112587192438 787.1288083305866 1630.083149940915 787.1288083305866 C 1635.0537126893921 787.1288083305866 1639.083149940915 791.1582455821094 1639.083149940915 796.1288083305866 Z" fill-opacity="1"/><path fill="none" stroke="rgb(0,0,0)" paint-order="fill stroke markers" d=" M 1639.083149940915 796.1288083305866 C 1639.083149940915 801.0993710790638 1635.0537126893921 805.1288083305866 1630.083149940915 805.1288083305866 C 1625.112587192438 805.1288083305866 1621.083149940915 801.0993710790638 1621.083149940915 796.1288083305866 C 1621.083149940915 791.1582455821094 1625.112587192438 787.1288083305866 1630.083149940915 787.1288083305866 C 1635.0537126893921 787.1288083305866 1639.083149940915 791.1582455821094 1639.083149940915 796.1288083305866 Z" stroke-opacity="1" stroke-linecap="round" stroke-linejoin="round" stroke-miterlimit="10"/><path fill="rgb(211,47,47)" stroke="none" paint-order="stroke fill markers" d=" M 1639.083149940915 541.1479269881889 C 1639.083149940915 546.1184897366661 1635.0537126893921 550.1479269881889 1630.083149940915 550.1479269881889 C 1625.112587192438 550.1479269881889 1621.083149940915 546.1184897366661 1621.083149940915 541.1479269881889 C 1621.083149940915 536.1773642397118 1625.112587192438 532.1479269881889 1630.083149940915 532.1479269881889 C 1635.0537126893921 532.1479269881889 1639.083149940915 536.1773642397118 1639.083149940915 541.1479269881889 Z" fill-opacity="1"/><path fill="none" stroke="rgb(0,0,0)" paint-order="fill stroke markers" d=" M 1639.083149940915 541.1479269881889 C 1639.083149940915 546.1184897366661 1635.0537126893921 550.1479269881889 1630.083149940915 550.1479269881889 C 1625.112587192438 550.1479269881889 1621.083149940915 546.1184897366661 1621.083149940915 541.1479269881889 C 1621.083149940915 536.1773642397118 1625.112587192438 532.1479269881889 1630.083149940915 532.1479269881889 C 1635.0537126893921 532.1479269881889 1639.083149940915 536.1773642397118 1639.083149940915 541.1479269881889 Z" stroke-opacity="1" stroke-linecap="round" stroke-linejoin="round" stroke-miterlimit="10"/><path fill="rgb(211,47,47)" stroke="none" paint-order="stroke fill markers" d=" M 1639.083149940915 286.1670456457912 C 1639.083149940915 291.13760839426834 1635.0537126893921 295.1670456457912 1630.083149940915 295.1670456457912 C 1625.112587192438 295.1670456457912 1621.083149940915 291.13760839426834 1621.083149940915 286.1670456457912 C 1621.083149940915 281.196482897314 1625.112587192438 277.1670456457912 1630.083149940915 277.1670456457912 C 1635.0537126893921 277.1670456457912 1639.083149940915 281.196482897314 1639.083149940915 286.1670456457912 Z" fill-opacity="1"/><path fill="none" stroke="rgb(0,0,0)" paint-order="fill stroke markers" d=" M 1639.083149940915 286.1670456457912 C 1639.083149940915 291.13760839426834 1635.0537126893921 295.1670456457912 1630.083149940915 295.1670456457912 C 1625.112587192438 295.1670456457912 1621.083149940915 291.13760839426834 1621.083149940915 286.1670456457912 C 1621.083149940915 281.196482897314 1625.112587192438 277.1670456457912 1630.083149940915 277.1670456457912 C 1635.0537126893921 277.1670456457912 1639.083149940915 281.196482897314 1639.083149940915 286.1670456457912 Z" stroke-opacity="1" stroke-linecap="round" stroke-linejoin="round" stroke-miterlimit="10"/><path fill="rgb(21,101,192)" stroke="none" paint-order="stroke fill markers" d=" M 2149.0449126257095 796.1288083305866 C 2149.0449126257095 801.0993710790638 2145.0154753741867 805.1288083305866 2140.0449126257095 805.1288083305866 C 2135.074349877232 805.1288083305866 2131.0449126257095 801.0993710790638 2131.0449126257095 796.1288083305866 C 2131.0449126257095 791.1582455821094 2135.074349877232 787.1288083305866 2140.0449126257095 787.1288083305866 C 2145.0154753741867 787.1288083305866 2149.0449126257095 791.1582455821094 2149.0449126257095 796.1288083305866 Z" fill-opacity="1"/><path fill="none" stroke="rgb(0,0,0)" paint-order="fill stroke markers" d=" M 2149.0449126257095 796.1288083305866 C 2149.0449126257095 801.0993710790638 2145.0154753741867 805.1288083305866 2140.0449126257095 805.1288083305866 C 2135.074349877232 805.1288083305866 2131.0449126257095 801.0993710790638 2131.0449126257095 796.1288083305866 C 2131.0449126257095 791.1582455821094 2135.074349877232 787.1288083305866 2140.0449126257095 787.1288083305866 C 2145.0154753741867 787.1288083305866 2149.0449126257095 791.1582455821094 2149.0449126257095 796.1288083305866 Z" stroke-opacity="1" stroke-linecap="round" stroke-linejoin="round" stroke-miterlimit="10"/><path fill="rgb(211,47,47)" stroke="none" paint-order="stroke fill markers" d=" M 364.17874322892874 796.1288083305866 C 364.17874322892874 801.0993710790638 360.1493059774059 805.1288083305866 355.17874322892874 805.1288083305866 C 350.2081804804516 805.1288083305866 346.17874322892874 801.0993710790638 346.17874322892874 796.1288083305866 C 346.17874322892874 791.1582455821094 350.2081804804516 787.1288083305866 355.17874322892874 787.1288083305866 C 360.1493059774059 787.1288083305866 364.17874322892874 791.1582455821094 364.17874322892874 796.1288083305866 Z" fill-opacity="1"/><path fill="none" stroke="rgb(0,0,0)" paint-order="fill stroke markers" d=" M 364.17874322892874 796.1288083305866 C 364.17874322892874 801.0993710790638 360.1493059774059 805.1288083305866 355.17874322892874 805.1288083305866 C 350.2081804804516 805.1288083305866 346.17874322892874 801.0993710790638 346.17874322892874 796.1288083305866 C 346.17874322892874 791.1582455821094 350.2081804804516 787.1288083305866 355.17874322892874 787.1288083305866 C 360.1493059774059 787.1288083305866 364.17874322892874 791.1582455821094 364.17874322892874 796.1288083305866 Z" stroke-opacity="1" stroke-linecap="round" stroke-linejoin="round" stroke-miterlimit="10"/><g transform="scale(131,131)"><g transform="translate(2.3587786259541983,4.545595419847328)"><path fill="rgb(211,47,47)" stroke="none" paint-order="stroke fill markers" d=" M 0.645 -0.6950000000000001 L 0.645 -0.6950000000000001 L 0.591 -0.47600000000000003 Q 0.582 -0.457 0.5760000000000001 -0.456 Q 0.5640000000000001 -0.456 0.5640000000000001 -0.466 L 0.5680000000000001 -0.52 L 0.5680000000000001 -0.522 Q 0.5680000000000001 -0.66 0.452 -0.675 Q 0.439 -0.677 0.424 -0.677 Q 0.34600000000000003 -0.677 0.291 -0.614 Q 0.249 -0.5660000000000001 0.249 -0.511 Q 0.249 -0.451 0.298 -0.425 Q 0.304 -0.422 0.31 -0.42 Q 0.315 -0.419 0.377 -0.402 Q 0.46900000000000003 -0.378 0.487 -0.366 Q 0.495 -0.361 0.504 -0.352 Q 0.553 -0.306 0.553 -0.23500000000000001 Q 0.553 -0.14300000000000002 0.481 -0.064 Q 0.399 0.019 0.299 0.022 Q 0.183 0.022 0.13 -0.05 L 0.081 0.007 Q 0.068 0.022 0.063 0.022 Q 0.052000000000000005 0.022 0.052000000000000005 0.012 L 0.109 -0.213 L 0.109 -0.215 Q 0.111 -0.222 0.112 -0.223 Q 0.116 -0.227 0.122 -0.227 Q 0.134 -0.227 0.134 -0.216 L 0.132 -0.209 Q 0.126 -0.17300000000000001 0.126 -0.155 Q 0.126 -0.042 0.241 -0.016 Q 0.269 -0.009000000000000001 0.301 -0.009000000000000001 Q 0.38 -0.009000000000000001 0.436 -0.077 Q 0.481 -0.13 0.481 -0.193 Q 0.481 -0.271 0.40900000000000003 -0.294 L 0.389 -0.299 L 0.28200000000000003 -0.327 Q 0.216 -0.34600000000000003 0.19 -0.40700000000000003 Q 0.178 -0.436 0.178 -0.46900000000000003 Q 0.178 -0.56 0.254 -0.633 Q 0.33 -0.705 0.425 -0.705 Q 0.527 -0.705 0.5680000000000001 -0.633 L 0.616 -0.6900000000000001 Q 0.629 -0.705 0.634 -0.705 Q 0.645 -0.705 0.645 -0.6950000000000001 Z"/></g></g><g transform="scale(131,131)"><g transform="translate(16.091603053435115,7.67536641221374)"><path fill="rgb(21,101,192)" stroke="none" paint-order="stroke fill markers" d=" M 0.427 -0.607 L 0.294 -0.076 Q 0.29 -0.061 0.29 -0.055 Q 0.29 -0.04 0.306 -0.036000000000000004 L 0.307 -0.036000000000000004 Q 0.314 -0.034 0.327 -0.033 Q 0.353 -0.031 0.391 -0.031 Q 0.422 -0.031 0.424 -0.025 Q 0.425 -0.023 0.425 -0.02 Q 0.421 -0.001 0.403 0 L 0.317 -0.002 L 0.316 -0.002 L 0.23500000000000001 -0.003 L 0.233 -0.003 L 0.15 -0.002 L 0.148 -0.002 L 0.067 0 L 0.066 0 Q 0.049 0 0.049 -0.012 Q 0.049 -0.027 0.06 -0.03 Q 0.067 -0.031 0.091 -0.031 Q 0.18 -0.031 0.197 -0.048 Q 0.203 -0.054 0.20700000000000002 -0.066 Q 0.20700000000000002 -0.068 0.20800000000000002 -0.07100000000000001 L 0.20800000000000002 -0.073 L 0.209 -0.073 L 0.209 -0.074 Q 0.209 -0.075 0.21 -0.079 L 0.34400000000000003 -0.613 Q 0.34800000000000003 -0.625 0.34800000000000003 -0.634 Q 0.34800000000000003 -0.643 0.339 -0.645 Q 0.333 -0.646 0.32 -0.646 L 0.281 -0.646 Q 0.178 -0.646 0.14 -0.623 Q 0.11900000000000001 -0.611 0.10300000000000001 -0.586 L 0.10200000000000001 -0.585 L 0.10200000000000001 -0.584 L 0.101 -0.584 Q 0.08 -0.551 0.053 -0.47300000000000003 Q 0.046 -0.454 0.041 -0.453 Q 0.039 -0.452 0.036000000000000004 -0.452 Q 0.024 -0.452 0.024 -0.463 Q 0.024 -0.46900000000000003 0.03 -0.481 L 0.09 -0.657 Q 0.096 -0.674 0.10400000000000001 -0.676 Q 0.109 -0.677 0.122 -0.677 L 0.677 -0.677 Q 0.7020000000000001 -0.677 0.704 -0.666 Q 0.704 -0.657 0.7020000000000001 -0.649 L 0.675 -0.47500000000000003 Q 0.672 -0.454 0.66 -0.452 Q 0.648 -0.452 0.648 -0.465 Q 0.648 -0.47200000000000003 0.651 -0.484 Q 0.659 -0.536 0.659 -0.5640000000000001 Q 0.659 -0.622 0.618 -0.637 Q 0.592 -0.646 0.513 -0.646 Q 0.459 -0.646 0.45 -0.644 Q 0.437 -0.641 0.431 -0.622 L 0.431 -0.621 Q 0.429 -0.616 0.427 -0.607 Z"/></g></g><g transform="scale(67,67)"><g transform="translate(11.417910447761194,3.7874776119402984)"><path fill="rgb(0,0,0)" stroke="none" paint-order="stroke fill markers" d=" M 0.179 -0.115 L 0.527 -0.6990000000000001 Q 0.537 -0.715 0.553 -0.716 Q 0.5680000000000001 -0.716 0.5700000000000001 -0.706 Q 0.5710000000000001 -0.7030000000000001 0.5720000000000001 -0.6920000000000001 L 0.633 -0.067 Q 0.636 -0.042 0.645 -0.037 L 0.646 -0.037 L 0.646 -0.037 L 0.646 -0.037 L 0.646 -0.037 L 0.646 -0.036000000000000004 Q 0.658 -0.031 0.6980000000000001 -0.031 Q 0.72 -0.031 0.721 -0.02 Q 0.721 0 0.7030000000000001 0 L 0.591 -0.003 L 0.59 -0.003 L 0.466 0 L 0.465 0 Q 0.451 0 0.451 -0.011 Q 0.459 -0.03 0.47500000000000003 -0.031 Q 0.547 -0.031 0.547 -0.064 Q 0.547 -0.063 0.531 -0.231 L 0.28 -0.231 L 0.20400000000000001 -0.10300000000000001 Q 0.19 -0.078 0.19 -0.066 Q 0.19 -0.035 0.23700000000000002 -0.031 Q 0.253 -0.031 0.253 -0.019 Q 0.253 0 0.234 0 L 0.138 -0.003 L 0.134 -0.003 L 0.05 0 L 0.048 0 Q 0.035 0 0.035 -0.011 Q 0.035 -0.029 0.05 -0.03 L 0.05 -0.031 L 0.056 -0.031 Q 0.11900000000000001 -0.035 0.159 -0.085 Q 0.169 -0.098 0.179 -0.115 M 0.299 -0.262 L 0.528 -0.262 L 0.496 -0.592 L 0.299 -0.262 Z"/></g><g transform="translate(12.167910447761194,3.9374776119402983) scale(0.7,0.7)"><path fill="rgb(0,0,0)" stroke="none" paint-order="stroke fill markers" d=" M 0.645 -0.6950000000000001 L 0.645 -0.6950000000000001 L 0.591 -0.47600000000000003 Q 0.582 -0.457 0.5760000000000001 -0.456 Q 0.5640000000000001 -0.456 0.5640000000000001 -0.466 L 0.5680000000000001 -0.52 L 0.5680000000000001 -0.522 Q 0.5680000000000001 -0.66 0.452 -0.675 Q 0.439 -0.677 0.424 -0.677 Q 0.34600000000000003 -0.677 0.291 -0.614 Q 0.249 -0.5660000000000001 0.249 -0.511 Q 0.249 -0.451 0.298 -0.425 Q 0.304 -0.422 0.31 -0.42 Q 0.315 -0.419 0.377 -0.402 Q 0.46900000000000003 -0.378 0.487 -0.366 Q 0.495 -0.361 0.504 -0.352 Q 0.553 -0.306 0.553 -0.23500000000000001 Q 0.553 -0.14300000000000002 0.481 -0.064 Q 0.399 0.019 0.299 0.022 Q 0.183 0.022 0.13 -0.05 L 0.081 0.007 Q 0.068 0.022 0.063 0.022 Q 0.052000000000000005 0.022 0.052000000000000005 0.012 L 0.109 -0.213 L 0.109 -0.215 Q 0.111 -0.222 0.112 -0.223 Q 0.116 -0.227 0.122 -0.227 Q 0.134 -0.227 0.134 -0.216 L 0.132 -0.209 Q 0.126 -0.17300000000000001 0.126 -0.155 Q 0.126 -0.042 0.241 -0.016 Q 0.269 -0.009000000000000001 0.301 -0.009000000000000001 Q 0.38 -0.009000000000000001 0.436 -0.077 Q 0.481 -0.13 0.481 -0.193 Q 0.481 -0.271 0.40900000000000003 -0.294 L 0.389 -0.299 L 0.28200000000000003 -0.327 Q 0.216 -0.34600000000000003 0.19 -0.40700000000000003 Q 0.178 -0.436 0.178 -0.46900000000000003 Q 0.178 -0.56 0.254 -0.633 Q 0.33 -0.705 0.425 -0.705 Q 0.527 -0.705 0.5680000000000001 -0.633 L 0.616 -0.6900000000000001 Q 0.629 -0.705 0.634 -0.705 Q 0.645 -0.705 0.645 -0.6950000000000001 Z"/></g></g><g transform="scale(67,67)"><g transform="translate(11.388059701492537,14.683)"><path fill="rgb(0,0,0)" stroke="none" paint-order="stroke fill markers" d=" M 0.179 -0.115 L 0.527 -0.6990000000000001 Q 0.537 -0.715 0.553 -0.716 Q 0.5680000000000001 -0.716 0.5700000000000001 -0.706 Q 0.5710000000000001 -0.7030000000000001 0.5720000000000001 -0.6920000000000001 L 0.633 -0.067 Q 0.636 -0.042 0.645 -0.037 L 0.646 -0.037 L 0.646 -0.037 L 0.646 -0.037 L 0.646 -0.037 L 0.646 -0.036000000000000004 Q 0.658 -0.031 0.6980000000000001 -0.031 Q 0.72 -0.031 0.721 -0.02 Q 0.721 0 0.7030000000000001 0 L 0.591 -0.003 L 0.59 -0.003 L 0.466 0 L 0.465 0 Q 0.451 0 0.451 -0.011 Q 0.459 -0.03 0.47500000000000003 -0.031 Q 0.547 -0.031 0.547 -0.064 Q 0.547 -0.063 0.531 -0.231 L 0.28 -0.231 L 0.20400000000000001 -0.10300000000000001 Q 0.19 -0.078 0.19 -0.066 Q 0.19 -0.035 0.23700000000000002 -0.031 Q 0.253 -0.031 0.253 -0.019 Q 0.253 0 0.234 0 L 0.138 -0.003 L 0.134 -0.003 L 0.05 0 L 0.048 0 Q 0.035 0 0.035 -0.011 Q 0.035 -0.029 0.05 -0.03 L 0.05 -0.031 L 0.056 -0.031 Q 0.11900000000000001 -0.035 0.159 -0.085 Q 0.169 -0.098 0.179 -0.115 M 0.299 -0.262 L 0.528 -0.262 L 0.496 -0.592 L 0.299 -0.262 Z"/></g><g transform="translate(12.138059701492537,14.833) scale(0.7,0.7)"><path fill="rgb(0,0,0)" stroke="none" paint-order="stroke fill markers" d=" M 0.427 -0.607 L 0.294 -0.076 Q 0.29 -0.061 0.29 -0.055 Q 0.29 -0.04 0.306 -0.036000000000000004 L 0.307 -0.036000000000000004 Q 0.314 -0.034 0.327 -0.033 Q 0.353 -0.031 0.391 -0.031 Q 0.422 -0.031 0.424 -0.025 Q 0.425 -0.023 0.425 -0.02 Q 0.421 -0.001 0.403 0 L 0.317 -0.002 L 0.316 -0.002 L 0.23500000000000001 -0.003 L 0.233 -0.003 L 0.15 -0.002 L 0.148 -0.002 L 0.067 0 L 0.066 0 Q 0.049 0 0.049 -0.012 Q 0.049 -0.027 0.06 -0.03 Q 0.067 -0.031 0.091 -0.031 Q 0.18 -0.031 0.197 -0.048 Q 0.203 -0.054 0.20700000000000002 -0.066 Q 0.20700000000000002 -0.068 0.20800000000000002 -0.07100000000000001 L 0.20800000000000002 -0.073 L 0.209 -0.073 L 0.209 -0.074 Q 0.209 -0.075 0.21 -0.079 L 0.34400000000000003 -0.613 Q 0.34800000000000003 -0.625 0.34800000000000003 -0.634 Q 0.34800000000000003 -0.643 0.339 -0.645 Q 0.333 -0.646 0.32 -0.646 L 0.281 -0.646 Q 0.178 -0.646 0.14 -0.623 Q 0.11900000000000001 -0.611 0.10300000000000001 -0.586 L 0.10200000000000001 -0.585 L 0.10200000000000001 -0.584 L 0.101 -0.584 Q 0.08 -0.551 0.053 -0.47300000000000003 Q 0.046 -0.454 0.041 -0.453 Q 0.039 -0.452 0.036000000000000004 -0.452 Q 0.024 -0.452 0.024 -0.463 Q 0.024 -0.46900000000000003 0.03 -0.481 L 0.09 -0.657 Q 0.096 -0.674 0.10400000000000001 -0.676 Q 0.109 -0.677 0.122 -0.677 L 0.677 -0.677 Q 0.7020000000000001 -0.677 0.704 -0.666 Q 0.704 -0.657 0.7020000000000001 -0.649 L 0.675 -0.47500000000000003 Q 0.672 -0.454 0.66 -0.452 Q 0.648 -0.452 0.648 -0.465 Q 0.648 -0.47200000000000003 0.651 -0.484 Q 0.659 -0.536 0.659 -0.5640000000000001 Q 0.659 -0.622 0.618 -0.637 Q 0.592 -0.646 0.513 -0.646 Q 0.459 -0.646 0.45 -0.644 Q 0.437 -0.641 0.431 -0.622 L 0.431 -0.621 Q 0.429 -0.616 0.427 -0.607 Z"/></g></g><g transform="scale(67,67)"><g transform="translate(22.82089552238806,11.429268656716419)"><path fill="rgb(0,0,0)" stroke="none" paint-order="stroke fill markers" d=" M 0.16 -0.078 L 0.294 -0.615 Q 0.298 -0.631 0.298 -0.634 Q 0.298 -0.646 0.28200000000000003 -0.649 L 0.281 -0.649 L 0.28 -0.649 Q 0.277 -0.649 0.271 -0.65 Q 0.254 -0.652 0.233 -0.652 Q 0.20700000000000002 -0.652 0.20500000000000002 -0.663 Q 0.20500000000000002 -0.681 0.22 -0.683 L 0.221 -0.683 L 0.222 -0.683 L 0.234 -0.683 L 0.5700000000000001 -0.683 Q 0.685 -0.683 0.734 -0.615 Q 0.756 -0.583 0.756 -0.545 Q 0.756 -0.464 0.666 -0.404 Q 0.665 -0.404 0.664 -0.403 Q 0.611 -0.369 0.547 -0.357 Q 0.649 -0.34500000000000003 0.687 -0.277 Q 0.7020000000000001 -0.249 0.7020000000000001 -0.216 Q 0.7020000000000001 -0.14300000000000002 0.632 -0.079 L 0.631 -0.078 Q 0.545 0 0.426 0 L 0.069 0 Q 0.044 0 0.042 -0.011 Q 0.042 -0.029 0.057 -0.031 L 0.069 -0.031 Q 0.134 -0.031 0.147 -0.045 Q 0.153 -0.052000000000000005 0.159 -0.073 Q 0.159 -0.074 0.16 -0.078 M 0.311 -0.366 L 0.457 -0.366 Q 0.556 -0.366 0.62 -0.438 Q 0.665 -0.489 0.665 -0.549 Q 0.665 -0.622 0.605 -0.644 Q 0.584 -0.652 0.556 -0.652 L 0.427 -0.652 Q 0.391 -0.652 0.383 -0.642 L 0.383 -0.642 L 0.383 -0.641 L 0.382 -0.641 L 0.382 -0.64 Q 0.378 -0.634 0.373 -0.614 L 0.311 -0.366 M 0.266 -0.031 L 0.402 -0.031 Q 0.498 -0.031 0.561 -0.10300000000000001 Q 0.609 -0.159 0.609 -0.227 Q 0.609 -0.3 0.557 -0.33 Q 0.531 -0.34400000000000003 0.494 -0.34400000000000003 L 0.305 -0.34400000000000003 L 0.23600000000000002 -0.065 Q 0.231 -0.047 0.231 -0.042 Q 0.231 -0.034 0.24 -0.032 L 0.24 -0.032 L 0.24 -0.032 L 0.244 -0.032 Q 0.25 -0.031 0.266 -0.031 Z"/></g><g transform="translate(23.57989552238806,11.579268656716419) scale(0.7,0.7)"><path fill="rgb(0,0,0)" stroke="none" paint-order="stroke fill markers" d=" M 0.427 -0.607 L 0.294 -0.076 Q 0.29 -0.061 0.29 -0.055 Q 0.29 -0.04 0.306 -0.036000000000000004 L 0.307 -0.036000000000000004 Q 0.314 -0.034 0.327 -0.033 Q 0.353 -0.031 0.391 -0.031 Q 0.422 -0.031 0.424 -0.025 Q 0.425 -0.023 0.425 -0.02 Q 0.421 -0.001 0.403 0 L 0.317 -0.002 L 0.316 -0.002 L 0.23500000000000001 -0.003 L 0.233 -0.003 L 0.15 -0.002 L 0.148 -0.002 L 0.067 0 L 0.066 0 Q 0.049 0 0.049 -0.012 Q 0.049 -0.027 0.06 -0.03 Q 0.067 -0.031 0.091 -0.031 Q 0.18 -0.031 0.197 -0.048 Q 0.203 -0.054 0.20700000000000002 -0.066 Q 0.20700000000000002 -0.068 0.20800000000000002 -0.07100000000000001 L 0.20800000000000002 -0.073 L 0.209 -0.073 L 0.209 -0.074 Q 0.209 -0.075 0.21 -0.079 L 0.34400000000000003 -0.613 Q 0.34800000000000003 -0.625 0.34800000000000003 -0.634 Q 0.34800000000000003 -0.643 0.339 -0.645 Q 0.333 -0.646 0.32 -0.646 L 0.281 -0.646 Q 0.178 -0.646 0.14 -0.623 Q 0.11900000000000001 -0.611 0.10300000000000001 -0.586 L 0.10200000000000001 -0.585 L 0.10200000000000001 -0.584 L 0.101 -0.584 Q 0.08 -0.551 0.053 -0.47300000000000003 Q 0.046 -0.454 0.041 -0.453 Q 0.039 -0.452 0.036000000000000004 -0.452 Q 0.024 -0.452 0.024 -0.463 Q 0.024 -0.46900000000000003 0.03 -0.481 L 0.09 -0.657 Q 0.096 -0.674 0.10400000000000001 -0.676 Q 0.109 -0.677 0.122 -0.677 L 0.677 -0.677 Q 0.7020000000000001 -0.677 0.704 -0.666 Q 0.704 -0.657 0.7020000000000001 -0.649 L 0.675 -0.47500000000000003 Q 0.672 -0.454 0.66 -0.452 Q 0.648 -0.452 0.648 -0.465 Q 0.648 -0.47200000000000003 0.651 -0.484 Q 0.659 -0.536 0.659 -0.5640000000000001 Q 0.659 -0.622 0.618 -0.637 Q 0.592 -0.646 0.513 -0.646 Q 0.459 -0.646 0.45 -0.644 Q 0.437 -0.641 0.431 -0.622 L 0.431 -0.621 Q 0.429 -0.616 0.427 -0.607 Z"/></g></g><g transform="scale(67,67)"><g transform="translate(22.865671641791046,3.757626865671642)"><path fill="rgb(0,0,0)" stroke="none" paint-order="stroke fill markers" d=" M 0.16 -0.078 L 0.294 -0.615 Q 0.298 -0.631 0.298 -0.634 Q 0.298 -0.646 0.28200000000000003 -0.649 L 0.281 -0.649 L 0.28 -0.649 Q 0.277 -0.649 0.271 -0.65 Q 0.254 -0.652 0.233 -0.652 Q 0.20700000000000002 -0.652 0.20500000000000002 -0.663 Q 0.20500000000000002 -0.681 0.22 -0.683 L 0.221 -0.683 L 0.222 -0.683 L 0.234 -0.683 L 0.5700000000000001 -0.683 Q 0.685 -0.683 0.734 -0.615 Q 0.756 -0.583 0.756 -0.545 Q 0.756 -0.464 0.666 -0.404 Q 0.665 -0.404 0.664 -0.403 Q 0.611 -0.369 0.547 -0.357 Q 0.649 -0.34500000000000003 0.687 -0.277 Q 0.7020000000000001 -0.249 0.7020000000000001 -0.216 Q 0.7020000000000001 -0.14300000000000002 0.632 -0.079 L 0.631 -0.078 Q 0.545 0 0.426 0 L 0.069 0 Q 0.044 0 0.042 -0.011 Q 0.042 -0.029 0.057 -0.031 L 0.069 -0.031 Q 0.134 -0.031 0.147 -0.045 Q 0.153 -0.052000000000000005 0.159 -0.073 Q 0.159 -0.074 0.16 -0.078 M 0.311 -0.366 L 0.457 -0.366 Q 0.556 -0.366 0.62 -0.438 Q 0.665 -0.489 0.665 -0.549 Q 0.665 -0.622 0.605 -0.644 Q 0.584 -0.652 0.556 -0.652 L 0.427 -0.652 Q 0.391 -0.652 0.383 -0.642 L 0.383 -0.642 L 0.383 -0.641 L 0.382 -0.641 L 0.382 -0.64 Q 0.378 -0.634 0.373 -0.614 L 0.311 -0.366 M 0.266 -0.031 L 0.402 -0.031 Q 0.498 -0.031 0.561 -0.10300000000000001 Q 0.609 -0.159 0.609 -0.227 Q 0.609 -0.3 0.557 -0.33 Q 0.531 -0.34400000000000003 0.494 -0.34400000000000003 L 0.305 -0.34400000000000003 L 0.23600000000000002 -0.065 Q 0.231 -0.047 0.231 -0.042 Q 0.231 -0.034 0.24 -0.032 L 0.24 -0.032 L 0.24 -0.032 L 0.244 -0.032 Q 0.25 -0.031 0.266 -0.031 Z"/></g><g transform="translate(23.624671641791046,3.907626865671642) scale(0.7,0.7)"><path fill="rgb(0,0,0)" stroke="none" paint-order="stroke fill markers" d=" M 0.645 -0.6950000000000001 L 0.645 -0.6950000000000001 L 0.591 -0.47600000000000003 Q 0.582 -0.457 0.5760000000000001 -0.456 Q 0.5640000000000001 -0.456 0.5640000000000001 -0.466 L 0.5680000000000001 -0.52 L 0.5680000000000001 -0.522 Q 0.5680000000000001 -0.66 0.452 -0.675 Q 0.439 -0.677 0.424 -0.677 Q 0.34600000000000003 -0.677 0.291 -0.614 Q 0.249 -0.5660000000000001 0.249 -0.511 Q 0.249 -0.451 0.298 -0.425 Q 0.304 -0.422 0.31 -0.42 Q 0.315 -0.419 0.377 -0.402 Q 0.46900000000000003 -0.378 0.487 -0.366 Q 0.495 -0.361 0.504 -0.352 Q 0.553 -0.306 0.553 -0.23500000000000001 Q 0.553 -0.14300000000000002 0.481 -0.064 Q 0.399 0.019 0.299 0.022 Q 0.183 0.022 0.13 -0.05 L 0.081 0.007 Q 0.068 0.022 0.063 0.022 Q 0.052000000000000005 0.022 0.052000000000000005 0.012 L 0.109 -0.213 L 0.109 -0.215 Q 0.111 -0.222 0.112 -0.223 Q 0.116 -0.227 0.122 -0.227 Q 0.134 -0.227 0.134 -0.216 L 0.132 -0.209 Q 0.126 -0.17300000000000001 0.126 -0.155 Q 0.126 -0.042 0.241 -0.016 Q 0.269 -0.009000000000000001 0.301 -0.009000000000000001 Q 0.38 -0.009000000000000001 0.436 -0.077 Q 0.481 -0.13 0.481 -0.193 Q 0.481 -0.271 0.40900000000000003 -0.294 L 0.389 -0.299 L 0.28200000000000003 -0.327 Q 0.216 -0.34600000000000003 0.19 -0.40700000000000003 Q 0.178 -0.436 0.178 -0.46900000000000003 Q 0.178 -0.56 0.254 -0.633 Q 0.33 -0.705 0.425 -0.705 Q 0.527 -0.705 0.5680000000000001 -0.633 L 0.616 -0.6900000000000001 Q 0.629 -0.705 0.634 -0.705 Q 0.645 -0.705 0.645 -0.6950000000000001 Z"/></g></g></g></g></svg>